<?xml version="1.0" standalone="no"?>
<!DOCTYPE svg PUBLIC "-//W3C//DTD SVG 1.1//EN" "http://www.w3.org/Graphics/SVG/1.1/DTD/svg11.dtd" >
<svg xmlns="http://www.w3.org/2000/svg" xmlns:xlink="http://www.w3.org/1999/xlink" version="1.1">
<metadata></metadata>
<defs>
<font id="noir-et-blancbold" horiz-adv-x="991" >
<font-face units-per-em="2048" ascent="1638" descent="-410" />
<missing-glyph horiz-adv-x="917" />
<glyph horiz-adv-x="0" />
<glyph horiz-adv-x="682" />
<glyph unicode=" "  horiz-adv-x="917" />
<glyph unicode="&#x09;" horiz-adv-x="917" />
<glyph unicode="&#xa0;" horiz-adv-x="917" />
<glyph unicode="!" horiz-adv-x="286" d="M41 49q0 -18 30.5 -38.5t71.5 -20.5t72 21.5t31 39.5t-31 39t-72 21t-71.5 -21.5t-30.5 -40.5zM41 236h205v1722l-205 -51v-1671z" />
<glyph unicode="&#x22;" horiz-adv-x="536" d="M41 1714h205v244l-205 -51v-193zM291 1712h205v244l-205 -51v-193z" />
<glyph unicode="&#x26;" horiz-adv-x="1263" d="M41 629q0 -131 44 -248t122 -205t183.5 -137t223.5 -49q111 0 223.5 54t192.5 151l193 -312v332l-88 150q45 102 66.5 212.5t21.5 239.5h-205q0 -12 2 -29v-28q0 -86 -19 -172l-305 512q-23 37 -53 92q78 72 134.5 126t103.5 111.5t75.5 111.5t28.5 101q0 68 -16.5 122.5 t-50.5 93.5q-80 88 -256 88q-63 0 -126 -24t-113 -64.5t-79 -95t-29 -113.5q0 -109 26 -212.5t81 -224.5q-78 -66 -142.5 -130t-119 -138t-87 -153.5t-32.5 -161.5zM246 618q0 115 65.5 218.5t190.5 224.5q18 -33 45 -72l379 -620q-70 -125 -147 -190.5t-165 -65.5 q-74 0 -140 35.5t-117.5 101t-81 160t-29.5 208.5zM520 1642q0 80 42 130.5t100 50.5q55 0 86.5 -51.5t31.5 -129.5q0 -76 -51 -144t-156 -159q-53 137 -53 303z" />
<glyph unicode="'" horiz-adv-x="286" d="M41 1714h205v244l-205 -51v-193z" />
<glyph unicode="," horiz-adv-x="286" d="M41 49q0 -16 26.5 -36.5t63.5 -22.5h-22q0 -41 -2.5 -70.5t-6.5 -54.5l115 -6q31 98 31 192q0 18 -31 39t-72 21t-71.5 -21.5t-30.5 -40.5z" />
<glyph unicode="-" horiz-adv-x="673" d="M41 543h592v123h-592v-123z" />
<glyph unicode="." horiz-adv-x="286" d="M41 49q0 -18 30.5 -38.5t71.5 -20.5t72 21.5t31 39.5t-31 39t-72 21t-71.5 -21.5t-30.5 -40.5z" />
<glyph unicode="0" d="M41 412q0 -78 35 -155t97.5 -137.5t145 -95t177.5 -34.5q94 0 177 34.5t145.5 95t97 137.5t34.5 155t-34.5 153.5t-96 136t-145.5 95t-178 34.5t-177 -34.5t-145.5 -95t-97.5 -136.5t-35 -153zM246 412q0 61 20.5 115.5t55.5 95.5q76 86 174 86t174 -86q35 -41 55 -95.5 t20 -115.5t-20 -115.5t-55 -97.5q-76 -86 -174 -86t-174 86q-35 43 -55.5 97t-20.5 116z" />
<glyph unicode="1" horiz-adv-x="286" d="M41 2h205v858l-205 -49v-809z" />
<glyph unicode="2" horiz-adv-x="983" d="M41 -10h901v123h-696v71q0 63 82 101q33 14 73.5 22t77.5 8q72 0 153 17.5t151.5 53.5t114.5 91t44 127q0 51 -41 93t-110.5 73t-149.5 46t-156 15q-61 0 -139 -18t-147.5 -51t-113.5 -76t-44 -90l205 -92q0 61 23.5 102t61.5 63.5t80 31t83 8.5q31 0 70.5 -5.5 t79.5 -17.5t66.5 -35.5t26.5 -60.5q0 -41 -24.5 -71t-64.5 -48t-88 -26.5t-95 -8.5q-201 0 -312.5 -74.5t-111.5 -201.5v-170z" />
<glyph unicode="3" horiz-adv-x="1036" d="M41 596l205 -92q0 61 23.5 102t61.5 63.5t80 31t83 8.5q31 0 70.5 -5.5t79.5 -17.5t66.5 -35.5t26.5 -60.5q0 -47 -16 -76t-59.5 -45t-125 -24.5t-221.5 -8.5l-12 -121h45q188 0 315.5 -97t127.5 -263q0 -172 -144.5 -297t-374.5 -184l113 -99q129 49 233.5 100.5 t190.5 121t136 159.5t50 203q0 109 -72.5 214.5t-201.5 182.5q117 37 169 97.5t52 150.5q0 51 -41 93t-110.5 73t-149.5 46t-156 15q-61 0 -139 -18t-147.5 -51t-113.5 -76t-44 -90z" />
<glyph unicode="4" horiz-adv-x="983" d="M41 -10h522v-604h205v604h174v123h-174v215l-205 -52v-163h-311q12 76 34.5 141t61.5 162q53 127 80 217t27 198h-205q0 -102 -25.5 -193t-79.5 -224q-51 -133 -77.5 -226.5t-26.5 -197.5z" />
<glyph unicode="5" horiz-adv-x="962" d="M45 315q94 0 182 -12t172 -49t136.5 -111.5t52.5 -193.5q0 -145 -96.5 -273.5t-266.5 -201.5l117 -103q213 100 332 235.5t119 334.5q0 205 -127 332.5t-367 152.5l129 283h424l66 122h-650z" />
<glyph unicode="6" d="M41 410q0 -78 35 -154t97.5 -136.5t145.5 -95t177 -34.5t178 34.5t145.5 95t96 136.5t34.5 154t-34.5 154.5t-97 137t-145.5 95t-177 34.5t-177 -32q23 80 48.5 157.5t58.5 160.5t77 178.5t103 205.5l-205 -51q-70 -113 -134 -248t-115.5 -278.5t-81 -275.5t-29.5 -234 l16 -2zM246 410q0 61 20.5 115.5t55.5 97.5q76 86 174 86t174 -86q35 -43 55 -97.5t20 -115.5t-20 -115.5t-55 -95.5q-76 -86 -174 -86t-174 86q-35 41 -55.5 95t-20.5 116z" />
<glyph unicode="7" horiz-adv-x="976" d="M41 659l207 13l6 37h430q-162 -342 -247 -674t-85 -649h205q0 338 91 695t284 750h-856l-17 -79z" />
<glyph unicode="8" d="M41 412q0 -78 35 -155t97.5 -137.5t145 -95t177.5 -34.5q94 0 177 34.5t145.5 95t97 137.5t34.5 155q0 109 -61.5 205t-173.5 159q160 123 159 281q0 63 -28.5 125.5t-81.5 113t-123.5 79t-148.5 28.5q-80 0 -151 -28.5t-123 -79t-80.5 -113t-28.5 -125.5 q0 -160 163 -283q-109 -61 -170 -158.5t-61 -203.5zM246 412q0 61 20.5 115.5t55.5 95.5q76 86 174 86t174 -86q35 -41 55 -95.5t20 -115.5t-20 -115.5t-55 -97.5q-76 -86 -174 -86t-174 86q-35 43 -55.5 97t-20.5 116zM313 1053q0 102 51.5 164.5t129.5 64.5 q76 0 122 -60.5t46 -164.5q0 -102 -46.5 -164t-119.5 -62q-80 0 -131.5 59.5t-51.5 162.5z" />
<glyph unicode="9" d="M41 412q0 -78 35 -155t97.5 -137.5t145 -95t177.5 -34.5q84 0 170 30q-35 -86 -117 -235q-72 -129 -106.5 -214t-43.5 -185h205q14 98 51 185t105 212q94 176 142 310t48 315l-14 2l14 2q0 78 -34.5 153.5t-96 136t-145.5 95t-178 34.5t-177 -34.5t-145.5 -95 t-97.5 -136.5t-35 -153zM246 412q0 61 20.5 115.5t55.5 95.5q76 86 174 86t174 -86q35 -41 55 -95.5t20 -115.5t-20 -115.5t-55 -97.5q-76 -86 -174 -86t-174 86q-35 43 -55.5 97t-20.5 116z" />
<glyph unicode=":" horiz-adv-x="286" d="M41 49q0 -18 30.5 -38.5t71.5 -20.5t72 21.5t31 39.5t-31 39t-72 21t-71.5 -21.5t-30.5 -40.5zM41 647q0 -18 30.5 -38.5t71.5 -20.5t72 21.5t31 39.5t-31 39t-72 21t-71.5 -21.5t-30.5 -40.5z" />
<glyph unicode=";" horiz-adv-x="286" d="M41 51q0 -16 26.5 -36.5t63.5 -22.5h-22q0 -41 -2.5 -70.5t-6.5 -54.5l115 -6q31 98 31 192q0 18 -31 39t-72 21t-71.5 -21.5t-30.5 -40.5zM41 647q0 -18 30.5 -38.5t71.5 -20.5t72 21.5t31 39.5t-31 39t-72 21t-71.5 -21.5t-30.5 -40.5z" />
<glyph unicode="?" horiz-adv-x="1144" d="M41 1483l192 -62q35 199 122 300.5t210 101.5q98 0 164 -32t102.5 -84t52 -118.5t15.5 -142.5q0 -82 -49 -148.5t-152 -167.5q-63 -59 -104 -103t-78 -99.5t-59.5 -121t-22.5 -140.5v-430h205v430q0 111 57.5 192.5t171.5 188.5q117 111 176.5 195.5t59.5 199.5 q0 96 -27.5 184t-90 161t-168 116t-253.5 43q-96 0 -187 -39t-164 -106.5t-119 -150.5t-54 -167zM434 49q0 -18 31 -38.5t72 -20.5t71.5 21.5t30.5 39.5t-30.5 39t-71.5 21t-72 -21.5t-31 -40.5z" />
<glyph unicode="A" horiz-adv-x="1622" d="M-174 -643l225 78l524 1274h605l231 -961l201 49l-492 2026h113l80 123h-654q-55 0 -114.5 -15.5t-111.5 -45.5t-84 -74t-32 -97q0 -63 55.5 -115.5t166.5 -89.5l69 101q-31 12 -47 47t-16 72q0 63 26.5 78.5t135.5 15.5h94zM625 831l331 826l195 -826h-526z" />
<glyph unicode="B" horiz-adv-x="1386" d="M-188 -193v-157q174 -131 363.5 -202t369.5 -71q162 0 307 62.5t256 181.5t174.5 290t63.5 378q0 131 -32 262t-100.5 251t-177 214t-254.5 147q203 127 205 363q0 221 -137 326.5t-375 105.5q-115 0 -219 -23.5t-211 -70.5v-146q20 10 53 29q16 8 23 12v-1769l205 51 v1055h125q164 0 295 -73t219 -192.5t132 -262t44 -283.5q0 -211 -56.5 -363.5t-147.5 -245t-193.5 -134.5t-198.5 -42q-82 0 -161 15.5t-165 51.5t-185.5 94t-221.5 146zM326 1219v600l10 2q41 6 71.5 10t67.5 4q137 0 222 -82t85 -227q0 -152 -87 -229.5t-212 -77.5h-157z " />
<glyph unicode="C" horiz-adv-x="1550" d="M41 891q0 -440 47 -736t137 -466t216 -241t296 -71q158 0 281 78t192 217l-120 129q-70 -111 -114 -168t-78 -84.5t-68.5 -36t-92.5 -8.5q-102 0 -182 37t-150.5 170t-114.5 420t-44 760q0 176 40 343t116.5 302t191.5 215t256 84q90 0 169 -16.5t144.5 -56.5 t104.5 -106.5t43 -164.5h69l-4 6l133 74q-8 113 -71.5 188.5t-160.5 119.5t-206.5 61.5t-220.5 17.5q-221 0 -379 -96.5t-252 -255t-136 -344t-42 -371.5z" />
<glyph unicode="D" horiz-adv-x="1382" d="M-193 -193v-157q174 -131 363.5 -202t370.5 -71q254 0 414.5 88.5t244.5 241t112.5 343t28.5 437.5q0 248 -38.5 499t-135 473t-269.5 360.5t-427 138.5q-115 0 -219.5 -23.5t-210.5 -70.5v-146q20 10 53 29q16 8 23 12v-1769l205 51v1778l10 2q41 6 71.5 10t67.5 4 q168 0 295 -125t210 -329.5t122 -439t39 -454.5q0 -236 -26 -413.5t-91.5 -305.5t-183 -198t-295.5 -70q-82 0 -161 15.5t-165 51.5t-185.5 94t-222.5 146z" />
<glyph unicode="E" horiz-adv-x="1585" d="M41 1714q0 -63 55.5 -115.5t165.5 -89.5l57 82v-2214h867v123h-662v1596h832l4 123h-836v604h1020v123h-1161q-55 0 -114.5 -15.5t-112 -45.5t-84 -74t-31.5 -97zM268 1729q0 45 10.5 63t40.5 25v-201q-25 16 -38 48t-13 65z" />
<glyph unicode="F" horiz-adv-x="1585" d="M41 1714q0 -63 55.5 -115.5t165.5 -89.5l57 82v-2226l205 51v1680h832l4 123h-836v604h1020v123h-1161q-55 0 -114.5 -15.5t-112 -45.5t-84 -74t-31.5 -97zM268 1729q0 45 10.5 63t40.5 25v-201q-25 16 -38 48t-13 65z" />
<glyph unicode="G" horiz-adv-x="1550" d="M41 891q0 -440 51 -736t145.5 -466t224.5 -241t300 -71q92 0 151.5 22.5t118.5 74.5v-99l205 50v585l-205 -51v-244q-37 -70 -64.5 -109.5t-55 -62t-61.5 -31t-81 -8.5q-106 0 -190 37t-161 171t-125 422t-48 757q0 176 40 343t116.5 302t191.5 215t256 84 q86 0 164 -18.5t141.5 -60.5t105.5 -115.5t52 -180.5l194 111q-10 109 -74.5 184.5t-160.5 119.5t-205 63.5t-217 19.5q-221 0 -379 -96.5t-252 -255t-136 -344t-42 -371.5z" />
<glyph unicode="H" horiz-adv-x="1454" d="M41 1716q0 -63 55.5 -115.5t165.5 -89.5l53 76v-2201h54l120 30h33v1293h686v-1127l205 51v2313h-205v-1115h-686v994l103 -2l53 125h-295q-55 0 -114.5 -15.5t-112 -45t-84 -74t-31.5 -97.5zM268 1731q0 43 9.5 60t37.5 26v-197q-23 16 -35 48t-12 63z" />
<glyph unicode="I" horiz-adv-x="720" d="M41 1716q0 -63 55.5 -115.5t165.5 -89.5l55 80v-2218l205 52v2400l103 -2l53 125h-295q-55 0 -114.5 -15.5t-112 -45t-84 -74t-31.5 -97.5zM268 1731q0 43 10.5 61t38.5 25v-197q-23 16 -36 48t-13 63z" />
<glyph unicode="J" horiz-adv-x="720" d="M41 1716q0 -63 55.5 -115.5t165.5 -89.5l55 80v-1886q0 -84 -19 -157.5t-52 -112.5h14l107 -84q86 102 120.5 186t34.5 178v2110l103 -2l53 125h-295q-55 0 -114.5 -15.5t-112 -45t-84 -74t-31.5 -97.5zM268 1731q0 43 10.5 61t38.5 25v-197q-23 16 -36 48t-13 63z" />
<glyph unicode="K" horiz-adv-x="1583" d="M41 1714q0 -63 55.5 -115.5t165.5 -89.5l55 80v-2218l205 51v1047l309 451l517 -1362l188 88l-565 1476l563 824h-229l-783 -1147v1024l103 -2l53 125h-295q-55 0 -114.5 -15.5t-112 -45.5t-84 -74t-31.5 -97zM268 1729q0 43 10.5 61t38.5 25v-197q-23 16 -36 48t-13 63z " />
<glyph unicode="L" horiz-adv-x="1226" d="M41 1714q0 -63 55.5 -115.5t165.5 -89.5l57 82v-2214h816l49 123h-660v2323h129l60 123h-330q-55 0 -114.5 -15.5t-112 -45.5t-84 -74t-31.5 -97zM268 1729q0 45 10.5 63t40.5 25v-201q-25 16 -38 48t-13 65z" />
<glyph unicode="M" horiz-adv-x="2099" d="M41 1716q0 -63 55.5 -115.5t165.5 -89.5l53 76v-2201h54l120 30h33v1932l563 -1766l199 51l569 1733v-1538l205 51v2067h-203l-663 -1989l-627 1866l60 -2l53 127h-295q-55 0 -114.5 -15.5t-112 -45t-84 -74t-31.5 -97.5zM268 1731q0 43 9.5 60t37.5 26v-197 q-23 16 -35 48t-12 63z" />
<glyph unicode="N" horiz-adv-x="1454" d="M41 1716q0 -63 55.5 -115.5t165.5 -89.5l53 76v-2201h54l120 30h33v1977l692 -1809l199 49v2313h-205v-1811l-643 1688l60 -2l53 127h-295q-55 0 -114.5 -15.5t-112 -45t-84 -74t-31.5 -97.5zM268 1731q0 43 9.5 60t37.5 26v-197q-23 16 -35 48t-12 63z" />
<glyph unicode="O" horiz-adv-x="1652" d="M41 913q0 -362 53 -647.5t154.5 -482.5t249 -298t331.5 -101q377 0 580 397t203 1132q0 195 -37 375t-125 330.5t-243 242t-378 91.5q-209 0 -361.5 -91.5t-246.5 -243t-137 -333.5t-43 -371zM246 913q0 197 47 366t129 293t187 191.5t220 67.5q133 0 241 -72.5 t181.5 -200.5t112.5 -293t39 -347q0 -305 -43 -566.5t-120 -451t-182.5 -293t-228.5 -103.5q-125 0 -232.5 102.5t-186 293t-121.5 450.5t-43 563z" />
<glyph unicode="P" horiz-adv-x="1255" d="M41 1718q20 10 53 29q16 8 23 12v-2386l205 52v1271h182q123 0 242.5 24.5t226 90.5t174 191.5t67.5 318.5q0 176 -70.5 301t-183 198.5t-240.5 105.5t-249 32q-115 0 -219.5 -23.5t-210.5 -70.5v-146zM322 819v1000l10 2q41 6 71.5 10t67.5 4q80 0 172 -26.5t176 -86 t137.5 -160t53.5 -241.5q0 -172 -50.5 -276.5t-128 -151.5t-156.5 -60.5t-171 -13.5h-182z" />
<glyph unicode="Q" horiz-adv-x="1652" d="M41 913q0 -362 53 -647.5t154.5 -482.5t249 -298t331.5 -101q129 0 242 50t199 140l39 -70h241l-143 267q205 414 205 1142q0 195 -37 375t-125 330.5t-243 242t-378 91.5q-209 0 -361.5 -91.5t-246.5 -243t-137 -333.5t-43 -371zM246 913q0 197 47 366t129 293 t187.5 191.5t219.5 67.5q133 0 241 -72.5t181.5 -200.5t112.5 -293t39 -347q0 -266 -34 -502t-97 -416h-238l133 -238q-80 -133 -162.5 -195.5t-175.5 -62.5q-125 0 -232.5 102.5t-186 293t-121.5 450.5t-43 563z" />
<glyph unicode="R" horiz-adv-x="1255" d="M41 1718q20 10 53 29q16 8 23 12v-2386l205 52v1271h182q82 0 147 9l363 -1147l196 39l-360 1155q76 27 141.5 70.5t115.5 112.5t78.5 165t28.5 221q0 176 -70.5 301t-183 198.5t-240.5 105.5t-249 32q-115 0 -219.5 -23.5t-210.5 -70.5v-146zM322 819v1000l10 2 q41 6 71.5 10t67.5 4q80 0 172 -26.5t176 -86t137.5 -160t53.5 -241.5q0 -172 -50.5 -276.5t-128 -151.5t-156.5 -60.5t-171 -13.5h-182z" />
<glyph unicode="S" horiz-adv-x="1652" d="M41 1227q0 -162 54.5 -282t142.5 -194.5t189 -109.5t200 -35q80 0 139 23q150 55 281 55q162 0 259 -81t97 -218q0 -182 -43 -344t-122 -282.5t-183.5 -187.5t-225.5 -67q-115 0 -216 96.5t-195 295.5l-180 -97q90 -195 244.5 -305t346.5 -110q182 0 329 83.5t248 230 t153.5 334t52.5 392.5q0 100 -52.5 178t-140.5 128t-191.5 74.5t-205.5 24.5q-104 0 -184 -24q-123 -37 -224 -37q-170 0 -269 107.5t-99 336.5q0 139 46 255t128 197t187.5 124t221.5 43q145 0 258 -86t199 -256l205 59q-78 178 -244 291t-418 113q-203 0 -355 -64.5 t-247.5 -172t-140.5 -234.5t-45 -254z" />
<glyph unicode="T" horiz-adv-x="1351" d="M41 1716q0 -63 55.5 -115.5t165.5 -89.5l70 101q-31 12 -47.5 47t-16.5 72q0 33 29 62.5t74 29.5h288v-2450l205 52v2400l391 -2l54 125h-926q-55 0 -114.5 -15.5t-112 -45t-84 -74t-31.5 -97.5z" />
<glyph unicode="U" horiz-adv-x="1513" d="M41 -135q0 -217 124 -337t382 -120q115 0 250 25q176 31 289.5 107.5t174 181t85 217t32.5 247.5l92 1524q0 102 -114.5 169t-286.5 67l-49 -136q45 10 84 11q76 0 119 -39t43 -111q0 -4 -2 -10v-12l-103 -1397q-2 -20 -4 -64q-4 -111 -15.5 -194.5t-49 -171.5 t-114.5 -154.5t-202 -93.5q-119 -27 -209 -27q-168 0 -244.5 89.5t-76.5 267.5v2042h-205v-2081z" />
<glyph unicode="V" horiz-adv-x="1859" d="M43 1946l844 -2569h200l703 2184q25 76 25 125q0 41 -17.5 79.5t-61.5 73.5t-121 65t-194 50l-47 -127q125 -12 174 -56.5t49 -107.5q0 -37 -20 -102l-590 -1887l-739 2272h-205z" />
<glyph unicode="W" horiz-adv-x="2615" d="M43 1946l844 -2569h200l277 850l278 -850h201l703 2184q24 73 24 121q0 45 -17.5 83.5t-61.5 73.5t-120.5 64.5t-193.5 50.5l-47 -127q125 -12 174 -56.5t49 -107.5q0 -37 -20 -102l-590 -1887l-281 858l459 1414h-221l-342 -1090l-354 1090h-205l461 -1403l-273 -869 l-739 2272h-205z" />
<glyph unicode="X" horiz-adv-x="1875" d="M47 1946l813 -1424l-780 -1149l244 45l655 922l446 -743l213 45l-534 868l682 1051q29 45 47 88t18 84q0 39 -21.5 73.5t-69.5 63t-132 49t-209 29.5l-45 -121q133 -14 193.5 -52t60.5 -96q0 -51 -47 -118l-594 -877l-706 1262h-234z" />
<glyph unicode="Y" horiz-adv-x="1875" d="M47 1946l813 -1424l-780 -1149l244 45l1462 2143q25 39 40 78.5t15 78.5q0 41 -20.5 79t-68.5 68.5t-131 52t-202 30.5l-45 -121q131 -12 190.5 -53t59.5 -99q0 -53 -43 -114l-594 -877l-706 1262h-234z" />
<glyph unicode="Z" horiz-adv-x="1591" d="M41 1716q0 -63 55.5 -115.5t165.5 -89.5l70 101q-31 12 -47.5 47t-16.5 72q0 55 16.5 72.5t73.5 19.5h904l-1151 -2433h49l1183 288l74 156l-1020 -276l1149 2390h-1163q-55 0 -114.5 -15.5t-112 -45t-84 -74t-31.5 -97.5z" />
<glyph unicode="a" horiz-adv-x="817" d="M41 274q0 -51 27.5 -103t79 -93t118 -64.5t142.5 -23.5q41 0 82.5 9t80.5 26v-23h205v602q-2 104 -95 165.5t-267 61.5q-80 0 -158 -29.5t-137 -74.5v-180q57 53 97 85t71.5 48t58.5 22.5t62 6.5q84 0 119.5 -26t43.5 -89v-72q-77 29 -161 29q-76 0 -143.5 -22.5 t-118 -61.5t-79 -89t-28.5 -104zM240 274q0 70 49 112t121 42q125 0 161 -113v-82q-18 -55 -62 -87.5t-99 -32.5q-68 0 -119 46t-51 115z" />
<glyph unicode="b" horiz-adv-x="989" d="M41 6h205v60q53 -33 116.5 -54.5t129.5 -21.5q94 0 178 35.5t146.5 95t97 136.5t34.5 155t-34.5 153.5t-97 136t-146.5 95t-176 34.5q-68 0 -131.5 -20t-116.5 -55v1206l-205 -51v-1905zM246 381v61q12 113 83.5 190t162.5 77q100 -2 175.5 -88t75.5 -209t-75.5 -208 t-175.5 -85q-92 0 -163 74.5t-83 187.5z" />
<glyph unicode="c" horiz-adv-x="792" d="M41 412q0 -78 35 -155t97.5 -137.5t145 -95t177.5 -34.5q66 0 123 21.5t133 66.5l-9 207q-98 -98 -151 -135t-98 -37q-98 0 -172 86q-35 43 -55.5 97t-20.5 116q0 61 20.5 115.5t55.5 95.5q76 86 174 86q37 0 84 -29t149 -117l-8 199q-72 37 -120 53t-105 16 q-94 0 -177 -34.5t-145.5 -95t-97.5 -136.5t-35 -153z" />
<glyph unicode="d" d="M41 412q0 -78 35 -155t97.5 -137.5t145 -95t177.5 -34.5q66 0 129 21.5t120 58.5v-66h205v1956l-205 -51v-1155q-53 35 -116.5 56t-130.5 21q-92 0 -176 -34.5t-147.5 -95t-98.5 -136.5t-35 -153zM246 412q0 61 20.5 115.5t55.5 95.5q76 86 174 86t174 -86 q35 -41 55 -95.5t20 -115.5q0 -125 -73.5 -212t-171.5 -87q-47 0 -93.5 22.5t-83 64.5t-57 96t-20.5 116z" />
<glyph unicode="e" d="M41 412q0 -78 35 -155t97.5 -137.5t145 -95t177.5 -34.5q86 0 166.5 35.5t140.5 87.5l-74 166q-84 -92 -135 -129t-98 -37q-88 0 -159 73.5t-87 184.5h698q2 16 2 41q0 78 -34.5 153.5t-97 136t-146.5 95t-178 34.5t-177.5 -34.5t-145.5 -95t-96 -135t-34 -154.5z M256 494q31 96 95.5 154.5t142.5 60.5q78 0 144.5 -59.5t96.5 -155.5h-479z" />
<glyph unicode="f" horiz-adv-x="739" d="M41 2h205v694h303v123h-303v901q8 61 42 82t122 21q39 0 65.5 -4t57 -18.5t70.5 -44.5t95 -83v180q-55 41 -135 67t-160 26q-172 0 -265 -56.5t-97 -158.5v-1729z" />
<glyph unicode="g" d="M41 412q0 -78 35 -155t97.5 -137.5t145 -95t177.5 -34.5q66 0 129 21.5t120 58.5v-357q0 -84 -19 -157.5t-52 -112.5h14l107 -84q86 102 120.5 186t34.5 179v1095h-205v-65q-55 35 -118.5 56t-130.5 21q-94 0 -177 -34.5t-145.5 -95t-97.5 -136.5t-35 -153zM246 412 q0 123 75 210t173 87t174 -86q37 -41 57 -95.5t20 -115.5t-20 -115.5t-55 -97.5q-76 -86 -174 -86t-174 86q-35 43 -55.5 97t-20.5 116z" />
<glyph unicode="h" horiz-adv-x="841" d="M41 2h205v639q43 33 82 44t104 11q90 0 123 -20.5t41 -81.5v-592h205v602q-2 102 -96.5 158.5t-266.5 56.5q-47 0 -96 -10t-96 -27v1176l-205 -51v-1905z" />
<glyph unicode="i" horiz-adv-x="286" d="M41 2h205v817h-205v-817zM43 1001q0 -18 29.5 -38.5t70.5 -20.5t72 20.5t31 38.5t-31 39t-72 21t-70.5 -20.5t-29.5 -39.5z" />
<glyph unicode="j" horiz-adv-x="290" d="M-27 -557h15l106 -84q86 102 121 186t35 179v1095h-205v-1106q0 -84 -19.5 -157.5t-52.5 -112.5zM47 1001q0 -18 29.5 -38.5t70.5 -20.5t72 20.5t31 38.5t-31 39t-72 21t-70.5 -20.5t-29.5 -39.5z" />
<glyph unicode="k" horiz-adv-x="759" d="M41 2h205v299l362 -330l99 117l-371 338l307 301l-111 113l-286 -283v1401l-205 -51v-1905z" />
<glyph unicode="l" horiz-adv-x="286" d="M41 2h205v1956l-205 -51v-1905z" />
<glyph unicode="m" horiz-adv-x="1366" d="M41 2h205v635q47 39 91 55.5t101 16.5q82 0 118 -26t44 -89v-592h205v602q0 16 -6 53q41 27 76.5 39.5t80.5 12.5q82 0 119 -27t45 -90v-592h205v602q-2 106 -96 167.5t-266 61.5q-66 0 -129.5 -20t-114.5 -51q-41 31 -115 51t-162 20q-49 0 -100 -13t-96 -34v35h-205 v-817z" />
<glyph unicode="n" horiz-adv-x="845" d="M41 2h205v635q47 39 91 55.5t101 16.5q82 0 118 -26t44 -89v-592h205v602q-2 104 -95.5 165.5t-267.5 61.5q-49 0 -100 -13t-96 -34v35h-205v-817z" />
<glyph unicode="o" d="M41 412q0 -78 35 -155t97.5 -137.5t145 -95t177.5 -34.5q94 0 177 34.5t145.5 95t97 137.5t34.5 155t-34.5 153.5t-96 136t-145.5 95t-178 34.5t-177 -34.5t-145.5 -95t-97.5 -136.5t-35 -153zM246 412q0 61 20.5 115.5t55.5 95.5q76 86 174 86t174 -86q35 -41 55 -95.5 t20 -115.5t-20 -115.5t-55 -97.5q-76 -86 -174 -86t-174 86q-35 43 -55.5 97t-20.5 116z" />
<glyph unicode="p" d="M41 -625l205 52v636q55 -33 118.5 -53t131.5 -20q94 0 177 34.5t145.5 94t97 134.5t34.5 153t-34.5 154.5t-97 138t-145.5 97t-177 35.5q-68 0 -131.5 -22.5t-118.5 -58.5v81l-205 -51v-1405zM246 406q0 61 20.5 116.5t56 97.5t81 65.5t92.5 23.5t92 -23.5t81 -65.5 t56 -97.5t20 -116.5q0 -123 -75.5 -208t-175.5 -85q-98 0 -173 85t-75 208z" />
<glyph unicode="q" d="M41 412q0 -78 35 -155t97.5 -137.5t145 -95t177.5 -34.5q66 0 129 21.5t120 58.5v-349q0 -94 35 -178t121 -186l107 84h14q-33 39 -52.5 112.5t-19.5 157.5v1106h-205v-63q-55 35 -118.5 56t-130.5 21q-94 0 -177 -34.5t-145.5 -95t-97.5 -136.5t-35 -153zM246 412 q0 61 20.5 115.5t55.5 95.5q76 86 174 86t174 -86q35 -41 55 -95.5t20 -115.5t-20 -115.5t-55 -97.5q-76 -86 -174 -86t-174 86q-35 43 -55.5 97t-20.5 116z" />
<glyph unicode="r" horiz-adv-x="776" d="M41 2h205v635q49 41 91 56.5t99 15.5q59 0 128 -25t171 -88v156q-51 35 -130 57t-163 22q-49 0 -100 -13t-96 -34v35h-205v-817z" />
<glyph unicode="s" horiz-adv-x="817" d="M41 604q0 -59 29.5 -94t81 -51.5t109.5 -21.5t147 -7q72 0 121 -43t49 -113q0 -68 -61.5 -114.5t-139.5 -46.5q-59 2 -127 29.5t-141 90.5l-48 -143q88 -47 164 -73.5t158 -26.5q74 0 145.5 23.5t128 65.5t88 93t31.5 102q0 53 -27.5 103.5t-79 90.5t-119 62.5 t-142.5 22.5q-98 0 -130 8t-32 45q0 59 39 81t118 22q72 0 109 -15.5t96 -60.5q51 -37 90 -64v158q-43 47 -126 75.5t-166 28.5q-47 0 -110 -14t-121 -41.5t-96 -72t-38 -99.5z" />
<glyph unicode="t" horiz-adv-x="530" d="M41 696h121v-694h205v694h122v123h-122v191l-205 -52v-139h-121v-123z" />
<glyph unicode="u" horiz-adv-x="825" d="M41 274q0 -51 30.5 -101t85 -92t123 -66.5t144.5 -24.5t142.5 23.5t115.5 63.5t75.5 90t26.5 103v549h-204v-551q0 -70 -46.5 -112.5t-113.5 -42.5q-70 0 -122 46t-52 115v545h-205v-545z" />
<glyph unicode="v" horiz-adv-x="825" d="M43 819l276 -817h201l262 817h-200l-164 -530l-174 530h-201z" />
<glyph unicode="w" horiz-adv-x="1361" d="M43 819l276 -817h201l164 510l172 -510h201l262 817h-201l-164 -530l-170 520v10h-202l-164 -530l-174 530h-201z" />
<glyph unicode="x" horiz-adv-x="825" d="M47 2h213l152 240l153 -240h213l-260 408l260 409h-213l-153 -241l-152 241h-213l258 -409z" />
<glyph unicode="y" horiz-adv-x="825" d="M41 274q0 -51 29.5 -101t84 -92t123 -66.5t144.5 -24.5t158 35v-312q0 -84 -19.5 -157.5t-52.5 -112.5h14l107 -84q86 102 120.5 186t34.5 179v1095h-204v-569q-8 -63 -54.5 -100t-109.5 -37q-68 0 -119 46t-51 115v545h-205v-545z" />
<glyph unicode="z" horiz-adv-x="825" d="M41 2h743v123h-528l528 584v110h-743v-123h522l-522 -583v-111z" />
<glyph unicode="&#xad;" horiz-adv-x="673" d="M41 543h592v123h-592v-123z" />
<glyph unicode="&#x2000;" horiz-adv-x="981" />
<glyph unicode="&#x2001;" horiz-adv-x="1962" />
<glyph unicode="&#x2002;" horiz-adv-x="981" />
<glyph unicode="&#x2003;" horiz-adv-x="1962" />
<glyph unicode="&#x2004;" horiz-adv-x="654" />
<glyph unicode="&#x2005;" horiz-adv-x="490" />
<glyph unicode="&#x2006;" horiz-adv-x="327" />
<glyph unicode="&#x2007;" horiz-adv-x="327" />
<glyph unicode="&#x2008;" horiz-adv-x="245" />
<glyph unicode="&#x2009;" horiz-adv-x="392" />
<glyph unicode="&#x200a;" horiz-adv-x="109" />
<glyph unicode="&#x2010;" horiz-adv-x="673" d="M41 543h592v123h-592v-123z" />
<glyph unicode="&#x2011;" horiz-adv-x="673" d="M41 543h592v123h-592v-123z" />
<glyph unicode="&#x2012;" horiz-adv-x="673" d="M41 543h592v123h-592v-123z" />
<glyph unicode="&#x2013;" horiz-adv-x="1105" d="M41 543h1024v123h-1024v-123z" />
<glyph unicode="&#x2014;" horiz-adv-x="2129" d="M41 543h2048v123h-2048v-123z" />
<glyph unicode="&#x202f;" horiz-adv-x="392" />
<glyph unicode="&#x205f;" horiz-adv-x="490" />
<glyph unicode="&#x25fc;" horiz-adv-x="819" d="M0 0v819h819v-819h-819z" />
</font>
</defs>
</svg>
